<svg id="_1-Chatting" data-name="1-Chatting" xmlns="http://www.w3.org/2000/svg" viewBox="0 0 64 64"><defs><style>.cls-1{fill:#272835;}</style></defs><title>1-Chatting</title><path class="cls-1" d="M62,38A14,14,0,0,1,48,52H42a1,1,0,0,0-.71.29L33,60.59V53a1,1,0,0,0-1-1H16A14,14,0,0,1,2,38V22A14,14,0,0,1,16,8H37V6H16A16,16,0,0,0,0,22V38A16,16,0,0,0,16,54H31v9a1,1,0,0,0,1.71.71L42.41,54H48A16,16,0,0,0,64,38V24H62Z"/><path class="cls-1" d="M51,26A13,13,0,1,0,38,13,13,13,0,0,0,51,26ZM51,2A11,11,0,1,1,40,13,11,11,0,0,1,51,2Z"/><path class="cls-1" d="M50,10.41V19h2V8a1,1,0,0,0-1.71-.71l-3,3,1.41,1.41Z"/><rect class="cls-1" x="12" y="16" width="2" height="2"/><rect class="cls-1" x="16" y="16" width="2" height="2"/><rect class="cls-1" x="20" y="16" width="16" height="2"/><rect class="cls-1" x="12" y="24" width="26" height="2"/><rect class="cls-1" x="12" y="32" width="42" height="2"/><rect class="cls-1" x="12" y="40" width="38" height="2"/></svg>