<?xml version="1.0" encoding="utf-8"?>
<!-- Generator: Adobe Illustrator 16.0.0, SVG Export Plug-In . SVG Version: 6.00 Build 0)  -->
<!DOCTYPE svg PUBLIC "-//W3C//DTD SVG 1.1//EN" "http://www.w3.org/Graphics/SVG/1.1/DTD/svg11.dtd">
<svg version="1.1" id="Layer_1" xmlns="http://www.w3.org/2000/svg" xmlns:xlink="http://www.w3.org/1999/xlink" x="0px" y="0px"
	 width="128px" height="128px" viewBox="0 0 128 128" enable-background="new 0 0 128 128" xml:space="preserve">
<g>
	<g>
		<g>
			<g>
				<rect x="89.495" y="32.46" fill="#282D33" width="4" height="66.811"/>
			</g>
			<g>
				<rect x="34.507" y="32.46" fill="#282D33" width="4" height="66.811"/>
			</g>
			<g>
				<path fill="#282D33" d="M105.035,128H22.966v-8.682c0-5.524,4.551-10.019,10.146-10.019h61.779
					c5.594,0,10.145,4.494,10.145,10.019V128z M26.966,124h74.069v-4.682c0-3.318-2.757-6.019-6.145-6.019H33.111
					c-3.389,0-6.146,2.7-6.146,6.019V124z"/>
			</g>
			<g>
				<path fill="#282D33" d="M93.533,112.633H34.47c-2.6,0-4.715-2.097-4.715-4.674v-5.346c0-2.576,2.115-4.672,4.715-4.672h59.063
					c2.6,0,4.715,2.096,4.715,4.672l0.001,5.346C98.248,110.536,96.133,112.633,93.533,112.633z M34.47,101.941
					c-0.395,0-0.715,0.302-0.715,0.672v5.346c0,0.371,0.32,0.674,0.715,0.674h59.063c0.395,0,0.715-0.303,0.715-0.674v-5.346
					c0-0.37-0.321-0.672-0.716-0.672H34.47z"/>
			</g>
			<g>
				<g>
					<path fill="#282D33" d="M95.219,34.642c-3.677,0-7.353-1.377-10.151-4.132c-2.254-2.221-3.495-5.174-3.494-8.316
						c0.001-3.141,1.242-6.092,3.494-8.309c3.862-3.801,10.145-3.8,14.005,0c1.581,1.557,2.452,3.629,2.452,5.834
						c-0.001,2.205-0.872,4.275-2.453,5.831l-2.805-2.852c0.811-0.797,1.258-1.856,1.258-2.979c0-1.125-0.447-2.185-1.259-2.983
						c-2.313-2.277-6.077-2.277-8.392,0c-1.483,1.46-2.301,3.398-2.301,5.459c0,2.063,0.816,4.003,2.301,5.466
						c4.049,3.985,10.639,3.986,14.691-0.001c2.535-2.494,3.932-5.809,3.932-9.334c0-3.526-1.396-6.843-3.933-9.34
						c-3.151-3.101-6.961-4.853-10.727-4.933c-5.314-0.115-15.087-0.001-15.186,0l-0.047-4c0.098-0.001,9.936-0.118,15.319,0
						c4.788,0.102,9.563,2.262,13.445,6.081c3.307,3.255,5.128,7.584,5.127,12.191c-0.001,4.605-1.821,8.933-5.127,12.185
						C102.572,33.264,98.895,34.641,95.219,34.642z"/>
				</g>
				<g>
					<path fill="#282D33" d="M32.781,34.642c-3.676,0-7.353-1.377-10.152-4.131c-3.305-3.252-5.125-7.58-5.126-12.185
						c0-4.606,1.82-8.936,5.126-12.191c3.885-3.82,8.661-5.979,13.449-6.082c5.388-0.117,39.616-0.004,41.071,0l-0.014,4
						c-0.355-0.001-35.633-0.116-40.972,0c-3.766,0.08-7.576,1.833-10.729,4.934c-2.535,2.496-3.932,5.813-3.932,9.339
						c0.001,3.525,1.397,6.84,3.932,9.334c4.052,3.986,10.643,3.986,14.692,0c1.485-1.462,2.303-3.403,2.302-5.465
						c0-2.06-0.817-3.999-2.302-5.458c-2.313-2.278-6.078-2.278-8.391-0.001c-0.813,0.8-1.261,1.859-1.26,2.983
						c0,1.124,0.446,2.182,1.258,2.98l-2.804,2.853c-1.583-1.556-2.454-3.627-2.454-5.832c-0.001-2.206,0.871-4.277,2.454-5.834
						c3.858-3.801,10.141-3.801,14.002,0c2.254,2.217,3.496,5.168,3.496,8.309c0.001,3.143-1.24,6.096-3.496,8.316
						C40.135,33.264,36.458,34.641,32.781,34.642z"/>
				</g>
			</g>
			<g>
				<rect x="41.648" y="14.648" fill="#282D33" width="44.354" height="4"/>
			</g>
		</g>
	</g>
	<g>
		<path fill="#282D33" d="M48.821,91.357c-1.104,0-2-0.896-2-2V36.8c0-1.104,0.896-2,2-2s2,0.896,2,2v52.557
			C50.821,90.462,49.926,91.357,48.821,91.357z"/>
	</g>
	<g>
		<path fill="#282D33" d="M64.266,91.357c-1.104,0-2-0.896-2-2V28.669c0-1.104,0.896-2,2-2c1.105,0,2,0.896,2,2v60.688
			C66.266,90.462,65.371,91.357,64.266,91.357z"/>
	</g>
	<g>
		<path fill="#282D33" d="M79.711,91.357c-1.104,0-2-0.896-2-2V36.8c0-1.104,0.896-2,2-2s2,0.896,2,2v52.557
			C81.711,90.462,80.815,91.357,79.711,91.357z"/>
	</g>
</g>
</svg>
