<svg xmlns="http://www.w3.org/2000/svg" viewBox="0 0 64 64"><title>Artboard-8</title><g id="exchange"><path d="M63.707,11.293l-8-8A1.12,1.12,0,0,0,55,3H37a1,1,0,0,0-1,1V36a1,1,0,0,0,1,1H59a1,1,0,0,0,0-2H38V5H54v7a1,1,0,0,0,1,1h7V46a3,3,0,0,1-3,3H34.414l2.293-2.293a1,1,0,0,0-1.414-1.414l-4,4a1,1,0,0,0,0,1.414l4,4a1,1,0,0,0,1.414-1.414L34.414,51H59a5.006,5.006,0,0,0,5-5V12A1.09,1.09,0,0,0,63.707,11.293ZM56,11V6.414L60.586,11Z" style="fill:#28282b"/><path d="M41,9H51a1,1,0,0,0,0-2H41a1,1,0,0,0,0,2Z" style="fill:#28282b"/><path d="M41,13H51a1,1,0,0,0,0-2H41a1,1,0,0,0,0,2Z" style="fill:#28282b"/><path d="M41,17H59a1,1,0,0,0,0-2H41a1,1,0,0,0,0,2Z" style="fill:#28282b"/><path d="M41,21H59a1,1,0,0,0,0-2H41a1,1,0,0,0,0,2Z" style="fill:#28282b"/><path d="M41,25H59a1,1,0,0,0,0-2H41a1,1,0,0,0,0,2Z" style="fill:#28282b"/><path d="M41,29H59a1,1,0,0,0,0-2H41a1,1,0,0,0,0,2Z" style="fill:#28282b"/><path d="M41,33H59a1,1,0,0,0,0-2H41a1,1,0,0,0,0,2Z" style="fill:#28282b"/><path d="M32.707,19.293l-4-4a1,1,0,0,0-1.414,1.414L29.586,19H5a5.006,5.006,0,0,0-5,5V56a5.006,5.006,0,0,0,5,5H23a5.006,5.006,0,0,0,5-5V44a5.006,5.006,0,0,0-5-5H15a1,1,0,0,0,0,2h8a3,3,0,0,1,3,3V56a3,3,0,0,1-3,3H5a3,3,0,0,1-3-3V24a3,3,0,0,1,3-3H29.586l-2.293,2.293a1,1,0,0,0,1.414,1.414l4-4A1,1,0,0,0,32.707,19.293Z" style="fill:#28282b"/><path d="M4,37a1,1,0,0,0,0,2H9.465l3.7,5.555A1,1,0,0,0,14,45h9a1,1,0,0,0,0-2H14.535l-3.7-5.555A1,1,0,0,0,10,37Z" style="fill:#28282b"/></g></svg>